<?xml version="1.0" standalone="no"?>
<!DOCTYPE svg PUBLIC "-//W3C//DTD SVG 1.1//EN" "http://www.w3.org/Graphics/SVG/1.1/DTD/svg11.dtd" >
<svg xmlns="http://www.w3.org/2000/svg">
<metadata>
<json>
<![CDATA[
{
	"fontFamily": "icomoon",
	"majorVersion": 1,
	"minorVersion": 0,
	"version": "Version 1.0",
	"fontId": "icomoon",
	"psName": "icomoon",
	"subFamily": "Regular",
	"fullName": "icomoon",
	"description": "Font generated by IcoMoon."
}
]]>
</json>
</metadata>
<defs>
<font id="icomoon" horiz-adv-x="1024">
<font-face units-per-em="1024" ascent="960" descent="-64" />
<missing-glyph horiz-adv-x="1024" />
<glyph unicode="&#x20;" horiz-adv-x="512" d="" />
<glyph unicode="&#xe900;" glyph-name="arrow" data-tags="arrow" d="M707.627 593.707l-195.627-195.627-195.627 195.627-60.373-60.373 256-256 256 256z" />
<glyph unicode="&#xe901;" glyph-name="vp-butterfly" data-tags="vp-butterfly" horiz-adv-x="1448" d="M1424.3 418.2c-2.4 0.3-7.6-1.3-11.1-5.7-8.4-10.3-14.9-18.1-25.1-25.4 28.4 30 62.1 101.5 20.8 172.8 0 0-16.2-11.1-29.2-34.3-13 20.3-31.9 37-55.6 52.1 0 0-59.7-67-33.2-163.9-79.7-11.1-45.6-75.3-34.8-79.1 0 0-22.1 27.5 7 53.7 13.2 11.9 41 14.9 41 14.9-6.2 46.4-5.9 88.6 25.7 135 4.1-2.7 50.2-23.2 52.1-92.1 3.8-43.2-18.4-77.8-40-91.3-37.3-20.3-78.3-30.2-123.1-40.8 85.3 0.3 169.6 42.4 202.8 82.4 10.8 13.6 5.6 21.1 2.7 21.7v0zM1398.9 468.9c-1.3 14-4.6 26.7-9.5 38.3 8.6 17.8 17.3 24.6 17.3 24.6s18.1-46.4 2.2-94.2c-11.9-36.2-24.3-51.6-29.7-57 20.7 30 21.6 65.4 19.7 88.3v0z" />
<glyph unicode="&#xe902;" glyph-name="vp" data-tags="vp" horiz-adv-x="1448" d="M554.7 399.8h45.4v-17.8h-45.4v17.8zM377 382.2v36.2h38.1v17.8h-38.1v35.1h-20.5v-91.8c0-26.5 12.2-37.8 41-37.8h30.8v17.6h-24.8c-16.8 0.3-26.5 1.3-26.5 22.9v0zM284.6 434.6c-20.5 0-51.6 0-51.6-43.7v-49.2h19.4v46.4c0 22.7 7 28.6 32.1 28.6s32.1-6.2 32.1-28.6v-46.4h20.4v48.9c0 44-32.6 44-52.4 44v0zM92.6 434.6l-34-68.6-33.8 68.6h-22.6l47-92.1 0.5-0.8h18.1l47.5 92.9h-22.7zM1200.1 388.2c0 46.4-34.3 46.4-50.8 46.4-14.9 0-50 0-50-46.4s35.1-46.4 50-46.4h46.4v17.6h-46.4c-23.5 0-28.4 5.9-29.4 22.7h80.5l-0.3 6.1zM1120.7 399.8c1.9 11.6 7 17.3 28.4 17.3 23 0 28.4-5.9 29.4-17.3h-57.8zM924.1 366l-33.8 68.6h-22.7l47-92.1 0.3-0.8h18.4l47.3 92.9h-22.4l-34.1-68.6zM669.5 434.6c-27.8 0-52.7-3.5-52.7-46.4v-74.8h20.3v33.2c9.7-4.6 21.9-4.9 32.4-4.9 27.8 0 52.9 3.5 52.9 46.4s-25.1 46.5-52.9 46.5v0zM669.5 359.6c-31.1 0-32.4 5.9-32.4 28.6 0 22.4 1.3 28.6 32.4 28.6s32.4-6.5 32.4-28.6-1.4-28.6-32.4-28.6zM740.2 390.9v-49.2h20.3v46.4c0 21.3 1.6 28.6 32.4 28.6h21.3v17.6h-18.6c-28.4 0.3-55.4 0.3-55.4-43.4v0zM1033.8 434.6c-14.9 0-50 0-50-46.4s35.1-46.4 50-46.4h46.4v17.6h-46.4c-23.5 0-28.4 5.9-29.4 22.7h80.5v5.9c-0.1 46.6-34.4 46.6-51.1 46.6v0zM1005.4 399.8c1.9 11.6 7 17.3 28.4 17.3 23 0 28.4-5.9 29.4-17.3h-57.8zM486.6 434.6c-14.9 0-50 0-50-46.4s35.1-46.4 50-46.4h46.4v17.6h-46.4c-23.5 0-28.4 5.9-29.4 22.7h80.5v5.9c-0.3 46.6-34.6 46.6-51.1 46.6v0zM458 399.8c1.9 11.6 7 17.3 28.4 17.3 23 0 28.4-5.9 29.4-17.3h-57.8zM165 434.6c-14.9 0-50 0-50-46.4s35.1-46.4 50-46.4h46.4v17.6h-46.4c-23.5 0-28.4 5.9-29.4 22.7h80.4v5.9c0 46.6-34.3 46.6-51 46.6v0zM136.7 399.8c1.9 11.6 7 17.3 28.4 17.3 23 0 28.4-5.9 29.4-17.3h-57.8zM842.3 471.4c-5.9 0-10.8-4.9-10.8-10.8s4.9-10.8 10.8-10.8 10.8 4.9 10.8 10.8c0 5.9-4.9 10.8-10.8 10.8zM832 434.6h20.3v-92.6h-20.3v92.6z" />
<glyph unicode="&#xe903;" glyph-name="carte-rose-1" data-tags="carte-rose-1" horiz-adv-x="4480" d="M387.84 784.64l-26.88-25.6c-17.92 16.64-42.24 25.6-65.28 25.6-64 0-92.16-47.36-92.16-94.72 0-46.080 28.16-89.6 92.16-89.6 23.040 0 48.64 8.96 66.56 26.88l28.16-28.16c-23.040-23.040-58.88-37.12-94.72-37.12-90.88 0-131.84 62.72-131.84 128 0 66.56 42.24 130.56 131.84 130.56 34.56 1.28 66.56-10.24 92.16-35.84zM678.4 618.24l-21.76-51.2h-42.24l110.080 250.88h39.68l106.24-250.88h-44.8l-21.76 51.2h-125.44zM741.12 769.28l-48.64-113.92h96l-47.36 113.92zM1230.080 817.92c57.6 0 88.32-39.68 88.32-81.92 0-35.84-17.92-70.4-67.84-78.080l79.36-90.88h-53.76l-72.96 87.040h-49.92v-87.040h-39.68v250.88h116.48zM1153.28 689.92h75.52c33.28 0 48.64 21.76 48.64 44.8 0 21.76-14.080 44.8-47.36 44.8h-76.8c0 0 0-89.6 0-89.6zM1671.68 780.8v-213.76h-40.96v213.76h-81.92v37.12h204.8v-37.12h-81.92zM2040.32 779.52v-69.12h124.16v-37.12h-124.16v-69.12h133.12v-38.4h-174.080v252.16h171.52v-37.12h-130.56v-1.28zM2314.24 224v30.72h17.92v-176.64h-17.92v29.44c-16.64-21.76-42.24-34.56-71.68-34.56-49.92 0-89.6 38.4-89.6 92.16s40.96 92.16 89.6 92.16c28.16 1.28 57.6-10.24 71.68-33.28zM2169.6 166.4c0-44.8 32-75.52 71.68-75.52 49.92 0 74.24 38.4 74.24 75.52s-24.32 75.52-74.24 75.52c-39.68 0-71.68-30.72-71.68-75.52zM2240 285.44l-44.8 60.16h23.040l38.4-60.16h-16.64z" />
<glyph unicode="&#xe904;" glyph-name="vp-logo" data-tags="vp-logo" d="M707.412 254.124c31.252 23.32 51.34 48.52 77.052 80.672 11.048 13.82 27.056 19.4 34.14 18.164 9.060-1.72 24.52-25.612-9.052-66.96-102.724-126.54-361.18-260.416-624.108-261.404 137.86 33.18 264.168 65.244 379.16 129.232 66.516 42.7 135.084 152.416 123.204 289.472-5.356 218.556-147.62 283.484-160.048 292.024-97.24-147.736-98.596-281.208-79.2-428.924 0 0-85.336-9.856-126.044-47.548-89.708-83.144-21.868-170.472-21.868-170.472-33.36 11.92-137.904 215.848 107.216 250.952-81.248 307.68 102.38 520.080 102.38 520.080 72.548-47.948 130.9-101.616 170.928-165.644 40.644 73.52 90.132 108.98 90.132 108.98 127.12-226.492 23.112-453.544-63.892-548.624zM764.436 713.632c0 0-27.020-21.048-53.296-77.904 15.384-37.184 25.364-77.64 29.228-122.052 6.284-72.356 3.344-184.716-60.728-280.044 16.432 16.98 54.724 65.852 91.592 180.712 48.744 151.684-6.796 299.288-6.796 299.288z" />
<glyph unicode="&#xe905;" glyph-name="carte-rose-2" data-tags="carte-rose-2" horiz-adv-x="4480" d="M2853.12 817.92c61.44-1.28 94.72-39.68 94.72-85.76 0-30.72-10.24-65.28-53.76-79.36l69.12-85.76h-81.92l-57.6 78.080h-33.28v-78.080h-61.44v250.88h124.16zM2790.4 700.16h62.72c23.040 0 32 17.92 32 30.72 0 15.36-10.24 29.44-33.28 29.44h-61.44v-60.16zM3436.8 691.2c0-65.28-39.68-129.28-130.56-129.28s-130.56 64-130.56 129.28 39.68 130.56 130.56 130.56c90.88 0 130.56-65.28 130.56-130.56zM3237.12 689.92c0-38.4 16.64-71.68 69.12-71.68s69.12 33.28 69.12 71.68-16.64 75.52-69.12 75.52c-52.48 0-69.12-37.12-69.12-75.52zM3879.68 780.8l-37.12-39.68c-17.92 14.080-32 25.6-61.44 25.6-30.72 0-39.68-12.8-39.68-21.76 0-32 147.2-15.36 147.2-103.68 0-53.76-51.2-78.080-108.8-78.080s-98.56 28.16-112.64 65.28l51.2 26.88c8.96-25.6 32-35.84 62.72-35.84 29.44 0 46.080 5.12 46.080 19.2 0 33.28-147.2 11.52-147.2 104.96 0 51.2 48.64 78.080 98.56 78.080 55.040 0 88.32-23.040 101.12-40.96zM4195.84 760.32v-39.68h111.36v-57.6h-111.36v-39.68h120.32v-57.6h-183.040v252.16h180.48v-57.6h-117.76z" />
<glyph unicode="&#xe906;" glyph-name="carte-rose-3" data-tags="carte-rose-3" horiz-adv-x="4480" d="M168.96 179.2h1766.4v-25.6h-1766.4v25.6zM2549.76 179.2h1766.4v-25.6h-1766.4v25.6z" />
<glyph unicode="&#xe907;" glyph-name="arrow-basic" data-tags="arrow-basic" horiz-adv-x="1448" d="M1427.95 407.716c11.396 11.396 17.366 26.595 17.366 41.248s-5.427 29.851-17.366 41.248l-372.316 372.316c-22.796 22.796-59.702 22.796-83.038 0-22.796-22.796-22.796-59.702 0-83.038l272.452-272.452h-1189.13c-32.565 0-58.617-26.052-58.617-58.617s26.052-58.617 58.617-58.617h1189.673l-272.452-272.452c-22.796-22.796-22.796-59.702 0-83.038 22.796-22.796 59.702-22.796 83.038 0l371.774 373.402z" />
<glyph unicode="&#xe908;" glyph-name="facebook" data-tags="facebook" d="M730.255 567.346h-138.085v90.564c0 34.011 22.542 41.94 38.418 41.94 15.841 0 97.446 0 97.446 0v149.519l-134.202 0.524c-148.977 0-182.88-111.516-182.88-182.88v-99.667h-86.157v-154.071h86.157c0-197.727 0-435.967 0-435.967h181.218c0 0 0 240.588 0 435.967h122.281l15.804 154.071z" />
<glyph unicode="&#xe909;" glyph-name="twitter" data-tags="twitter" d="M954.352 687.893c-32.711-14.54-67.914-24.348-104.851-28.737 37.714 22.578 66.631 58.341 80.268 101.004-35.275-20.934-74.326-36.124-115.923-44.325-33.289 35.474-80.738 57.655-133.245 57.655-100.805 0-182.537-81.731-182.537-182.555 0-14.287 1.608-28.213 4.732-41.597-151.722 7.622-286.25 80.286-376.29 190.737-15.714-26.949-24.709-58.305-24.709-91.792 0-63.326 32.223-119.21 81.208-151.939-29.911 0.957-58.070 9.176-82.689 22.849-0.018-0.759-0.018-1.535-0.018-2.312 0-88.433 62.929-162.199 146.448-178.996-15.317-4.154-31.446-6.394-48.1-6.394-11.777 0-23.21 1.138-34.354 3.287 23.246-72.52 90.654-125.316 170.525-126.779-62.477-48.967-141.174-78.155-226.717-78.155-14.721 0-29.261 0.867-43.548 2.565 80.81-51.82 176.757-82.020 279.838-82.020 335.794 0 519.396 278.158 519.396 519.396 0 7.911-0.163 15.804-0.506 23.643 35.655 25.684 66.613 57.853 91.070 94.465z" />
<glyph unicode="&#xe90a;" glyph-name="logo-vp" data-tags="logo-vp" horiz-adv-x="1448" d="M554.69 399.795h45.368v-17.823h-45.368v17.823zM376.995 382.243v36.187h38.077v17.823h-38.077v35.107h-20.524v-91.818c0-26.464 12.153-37.807 41.048-37.807h30.786v17.553h-24.844c-16.743 0.27-26.464 1.35-26.464 22.954zM284.638 434.632c-20.524 0-51.58 0-51.58-43.748v-49.15h19.444v46.448c0 22.684 7.021 28.625 32.137 28.625s32.137-6.211 32.137-28.625v-46.448h20.254v48.88c0 44.018-32.677 44.018-52.39 44.018zM92.631 434.632l-34.027-68.594-33.757 68.594h-22.684l46.988-92.088 0.54-0.81h18.094l47.528 92.898zM1200.111 388.184c0 46.448-34.297 46.448-50.77 46.448-14.853 0-49.96 0-49.96-46.448s35.107-46.448 49.96-46.448h46.448v17.553h-46.448c-23.494 0-28.355 5.941-29.436 22.684h80.475l-0.27 6.211zM1120.717 399.795c1.89 11.613 7.021 17.283 28.355 17.283 22.954 0 28.355-5.941 29.436-17.283h-57.791zM924.12 366.040l-33.757 68.594h-22.684l46.988-92.088 0.27-0.81h18.364l47.258 92.898h-22.414zM669.462 434.632c-27.815 0-52.66-3.51-52.66-46.448v-74.804h20.254v33.217c9.723-4.59 21.874-4.861 32.407-4.861 27.815 0 52.93 3.51 52.93 46.448s-25.114 46.448-52.93 46.448zM669.462 359.558c-31.056 0-32.407 5.941-32.407 28.625 0 22.414 1.35 28.625 32.407 28.625s32.407-6.481 32.407-28.625-1.35-28.625-32.407-28.625zM740.214 390.884v-49.15h20.254v46.448c0 21.334 1.62 28.625 32.407 28.625h21.334v17.553h-18.634c-28.355 0.27-55.361 0.27-55.361-43.478zM1033.761 434.632c-14.853 0-49.96 0-49.96-46.448s35.107-46.448 49.96-46.448h46.448v17.553h-46.448c-23.494 0-28.355 5.941-29.436 22.684h80.475v5.941c0 46.718-34.297 46.718-51.040 46.718zM1005.405 399.795c1.89 11.613 7.021 17.283 28.355 17.283 22.954 0 28.355-5.941 29.436-17.283h-57.791zM486.637 434.632c-14.853 0-49.96 0-49.96-46.448s35.107-46.448 49.96-46.448h46.448v17.553h-46.448c-23.494 0-28.355 5.941-29.436 22.684h80.475v5.941c-0.27 46.718-34.567 46.718-51.040 46.718zM458.010 399.795c1.89 11.613 7.021 17.283 28.355 17.283 22.954 0 28.355-5.941 29.436-17.283h-57.791zM165.005 434.632c-14.853 0-49.96 0-49.96-46.448s35.107-46.448 49.96-46.448h46.448v17.553h-46.448c-23.494 0-28.355 5.941-29.436 22.684h80.475v5.941c0 46.718-34.297 46.718-51.040 46.718zM136.651 399.795c1.89 11.613 7.021 17.283 28.355 17.283 22.954 0 28.355-5.941 29.436-17.283h-57.791zM842.295 471.359c-5.941 0-10.803-4.861-10.803-10.803s4.861-10.803 10.803-10.803 10.803 4.861 10.803 10.803c0 5.941-4.861 10.803-10.803 10.803zM832.032 434.632h20.254v-92.628h-20.254v92.628zM1424.254 418.159c-2.43 0.27-7.561-1.35-11.073-5.671-8.371-10.263-14.853-18.094-25.114-25.384 28.355 29.976 62.111 101.539 20.794 172.833 0 0-16.203-11.073-29.166-34.297-12.963 20.254-31.867 36.997-55.631 52.12 0 0-59.681-66.972-33.217-163.922-79.665-11.073-45.638-75.344-34.837-79.125 0 0-22.144 27.545 7.021 53.74 13.233 11.883 41.048 14.853 41.048 14.853-6.211 46.448-5.941 88.577 25.654 135.026 4.050-2.7 50.23-23.224 52.12-92.088 3.78-43.208-18.364-77.775-39.967-91.278-37.267-20.254-78.315-30.246-123.143-40.778 85.335 0.27 169.592 42.398 202.809 82.365 10.803 13.503 5.671 21.064 2.7 21.604zM1398.87 468.929c-1.35 14.043-4.59 26.734-9.451 38.347 8.641 17.823 17.283 24.574 17.283 24.574s18.094-46.448 2.16-94.248c-11.883-36.187-24.304-51.58-29.706-56.981 20.794 29.976 21.604 65.352 19.714 88.307z" />
<glyph unicode="&#xe90b;" glyph-name="carte-rose-footer-1" data-tags="carte-rose-footer-1" horiz-adv-x="2151" d="M2074.676 458.326v-14.629c-6.884 12.047-20.652 17.21-35.281 15.489-24.094 0-44.746-18.931-44.746-45.607s19.792-45.607 44.746-45.607c14.629 0 27.536 6.024 35.281 17.21v-14.629h8.605v87.771h-8.605zM2038.534 378.299c-19.792 0-35.281 15.489-35.281 37.862 0 21.513 16.35 37.002 35.281 37.862 24.955 0 37.002-18.931 37.002-37.862s-12.047-37.862-37.002-37.862zM2047.139 475.536l-18.931 30.118h-12.047l22.373-30.118zM189.311 661.405c-53.351 0-77.445 37.002-77.445 75.724 0 39.583 24.094 79.166 77.445 79.166 18.931 0 39.583-7.745 54.212-21.513l22.373 21.513c-20.652 20.652-47.328 30.978-76.585 29.257-75.724 0-111.005-54.212-111.005-109.284s34.42-107.563 111.005-107.563c29.257 0 59.375 11.187 79.166 30.978l-24.094 24.094c-14.629-14.629-35.281-22.373-55.072-22.373zM573.956 633.869h37.862l-89.492 210.824h-33.56l-92.074-210.824h35.281l18.071 43.025h105.842l18.071-43.025zM462.091 706.151l40.444 96.376 39.583-96.376h-80.027zM776.175 706.151h41.304l61.096-73.143h45.607l-66.259 76.585c43.025 6.024 57.654 35.281 57.654 65.398 0 34.42-25.815 67.98-74.003 67.98h-98.958v-209.963h33.56v73.143zM777.035 812.854h64.538c27.536 0 39.583-19.792 39.583-37.862 0-19.792-12.908-37.862-40.444-37.862h-63.677v75.724zM1030.024 812.854h67.98v-179.845h34.42v179.845h69.701v30.118h-172.101zM1489.533 664.847h-111.866v58.514h104.121v30.978h-104.121v57.654h-0.861v0.861h109.284v30.118h-143.704v-210.824h147.146zM943.113 73.681h38.723v-14.629h-38.723v14.629zM791.664 58.192v30.978h32.699v14.629h-32.699v30.118h-17.21v-77.445c0-22.373 10.326-31.839 34.42-31.839h25.815v14.629h-20.652c-12.908 1.721-22.373 2.582-22.373 18.931zM713.358 102.938c-18.071 0-43.886 0-43.886-37.862v-41.304h17.21v39.583c0 18.931 6.024 24.955 27.536 24.955s27.536-5.163 27.536-24.955v-39.583h17.21v43.025c-0.861 36.141-28.397 36.141-45.607 36.141zM550.723 102.938l-28.397-57.654-28.397 57.654h-19.792l39.583-77.445h15.489l40.444 77.445zM1447.368 102.938c-12.908 0-43.025 0-43.025-39.583s30.118-39.583 43.025-39.583h39.583v14.629h-39.583c-19.792 0-24.094 5.163-24.955 18.931h67.98v6.024h0.861c0 39.583-28.397 39.583-43.886 39.583zM1424.134 73.681c1.721 10.326 6.024 14.629 24.094 14.629 19.792 0 24.094-5.163 24.955-14.629h-49.049zM1256.336 45.284l-28.397 57.654h-18.931l39.583-77.445h15.489l41.304 77.445h-19.792zM1040.35 102.938c-24.094 0-44.746-2.582-44.746-39.583v-63.677h17.21v28.397c7.745-4.303 18.931-4.303 27.536-4.303 24.094 0 44.746 2.582 44.746 39.583 0 37.862-20.652 39.583-44.746 39.583zM1040.35 40.982c-26.676 0-27.536 5.163-27.536 24.955 0 18.931 0.861 24.955 27.536 24.955s27.536-6.024 27.536-24.955c0-20.652-0.861-24.955-27.536-24.955zM1349.271 102.938c-12.908 0-43.025 0-43.025-39.583s30.118-39.583 43.025-39.583h39.583v14.629h-39.583c-19.792 0-24.094 5.163-24.955 18.931h67.98v5.163c0.861 40.444-28.397 40.444-43.025 40.444zM1326.037 73.681c1.721 10.326 6.024 14.629 24.094 14.629 19.792 0 24.094-5.163 24.955-14.629h-49.049zM1100.585 66.797v-41.304h17.21v38.723c0 18.071 0.861 24.955 27.536 24.955h18.071v14.629h-15.489c-24.094-0.861-47.328-0.861-47.328-37.002zM884.598 102.938c-12.908 0-43.025 0-43.025-39.583s30.118-39.583 43.025-39.583h39.583v14.629h-39.583c-19.792 0-24.094 5.163-24.955 18.931h67.98v5.163c0.861 40.444-28.397 40.444-43.025 40.444zM861.365 73.681c1.721 10.326 6.024 14.629 24.094 14.629 19.792 0 24.094-5.163 24.955-14.629h-49.049zM612.679 102.938c-12.908 0-43.025 0-43.025-39.583s30.118-39.583 43.025-39.583h39.583v14.629h-39.583c-19.792 0-24.094 5.163-24.955 18.931h67.119v5.163c0 40.444-28.397 40.444-42.165 40.444zM587.724 73.681c1.721 10.326 6.024 14.629 24.094 14.629 19.792 0 24.094-5.163 24.955-14.629h-49.049zM1187.496 135.637c-5.163 0-8.605-4.303-8.605-8.605 0-5.163 4.303-8.605 8.605-8.605 5.163 0 8.605 4.303 8.605 8.605 0 3.442-4.303 8.605-8.605 8.605zM1178.030 102.938h17.21v-78.306h-17.21v78.306zM345.923 64.215c-6.024 0-12.047-2.582-14.629-6.884l4.303 21.513h-7.745l-10.326-55.072h7.745l0.861 6.024c1.721-4.303 6.884-6.884 12.908-6.884 10.326 0 20.652 8.605 22.373 20.652 3.442 12.908-4.303 20.652-15.489 20.652zM339.039 30.655c-7.745 0-11.187 5.163-10.326 12.908 1.721 9.466 8.605 12.908 14.629 12.908 7.745 0 11.187-5.163 10.326-12.908-1.721-7.745-6.884-12.908-14.629-12.908zM399.274 46.145c-0.861-6.884-7.745-12.047-13.768-12.047-6.884 0-8.605 3.442-7.745 11.187l1.721 18.931h-7.745l-2.582-19.792c-1.721-12.047 4.303-18.071 12.908-18.071 6.024 0 10.326 1.721 14.629 6.024l-0.861-6.884c-0.861-6.024-6.884-8.605-12.908-8.605s-10.326 3.442-12.047 6.024l-6.024-6.024c3.442-2.582 9.466-6.884 17.21-6.884 10.326 0 19.792 6.024 21.513 17.21l6.024 37.002h-7.745l-2.582-18.071z" />
<glyph unicode="&#xe90c;" glyph-name="carte-rose-footer-2" data-tags="carte-rose-footer-2" horiz-adv-x="2151" d="M301.176 426.487c0 46.467-34.42 86.050-97.237 86.911v0.861h-126.494v-255.57h64.538v79.166h33.56l58.514-79.166h83.469l-70.561 86.911c43.025 14.629 54.212 49.049 54.212 80.887zM205.661 393.788h-64.538l0.861 61.956h62.817c22.373 0 33.56-14.629 33.56-30.118 0-13.768-8.605-31.839-32.699-31.839zM629.029 516.84c-92.934 0-133.378-67.119-133.378-133.378s39.583-131.657 132.518-131.657 133.378 65.398 133.378 131.657c0 67.119-41.304 135.099-132.518 133.378zM627.308 310.319c-53.351 0-70.561 33.56-70.561 73.143s17.21 77.445 70.561 77.445 70.561-37.862 70.561-77.445c0-39.583-17.21-73.143-70.561-73.143zM991.301 439.395c0 8.605 8.605 21.513 40.444 21.513 30.118 0 44.746-11.187 62.817-25.815l37.862 40.444c-12.908 18.071-46.467 43.025-103.261 41.304-50.77 0-100.679-26.676-100.679-79.166 0-94.655 150.588-73.143 150.588-106.703 0-14.629-16.35-19.792-46.467-19.792-31.839 0-55.933 11.187-64.538 37.002l-52.491-27.536c14.629-37.862 56.793-66.259 115.308-66.259s111.005 24.955 111.005 79.166c0 90.353-150.588 73.143-150.588 105.842zM1366.481 356.787h113.587v58.514h-113.587v40.444c0-0.861 119.61-0.861 119.61 0v58.514h-184.148v-257.291h187.59v58.514h-123.052v41.304zM1681.425 90.030c-1.721 0-6.024-0.861-10.326-5.163-6.884-8.605-12.908-14.629-20.652-21.513 24.094 25.815 52.491 86.050 18.071 146.286 0 0-13.768-10.326-24.955-28.397-11.187 17.21-26.676 31.839-47.328 44.746 0 0-50.77-56.793-28.397-138.541-67.119-8.605-38.723-64.538-30.118-67.119 0 0-18.931 24.094 6.024 45.607 11.187 10.326 34.42 12.908 34.42 12.908-5.163 39.583-5.163 75.724 21.513 115.308 2.582-1.721 43.025-19.792 44.746-78.306 2.582-37.002-15.489-66.259-33.56-77.445-31.839-17.21-66.259-25.815-104.982-34.42 72.282 0 143.704 35.281 172.101 70.561 10.326 7.745 6.024 15.489 3.442 15.489zM1642.703 57.331c18.071 25.815 18.931 55.933 17.21 74.864-0.861 12.047-4.303 22.373-7.745 32.699 6.884 14.629 14.629 20.652 14.629 20.652s14.629-39.583 1.721-80.027c-10.326-30.978-20.652-43.886-25.815-48.188z" />
<glyph unicode="&#xe90d;" glyph-name="play" data-tags="play" d="M828.060 508.126c44.396-33.062 44.396-87.17 0-120.236l-584.696-435.41c-44.39-33.048-80.72-14.812-80.72 40.544v909.954c0 55.364 36.33 73.592 80.72 40.532l584.696-435.384z" />
<glyph unicode="&#xe90e;" glyph-name="carte-rose-footer-3" data-tags="carte-rose-footer-3" horiz-adv-x="2151" d="M2039.395 316.343h12.908v-289.129h-12.908v289.129zM2039.395 847.274h12.908v-289.129h-12.908v289.129z" />
<glyph unicode="&#xe90f;" glyph-name="close" data-tags="close" d="M555.136 438.016l207.104 207.104c3.17 3.323 5.12 7.834 5.12 12.8s-1.95 9.477-5.127 12.807l-4.729 4.729c-3.323 3.17-7.834 5.12-12.8 5.12s-9.477-1.95-12.807-5.127l0.007 0.007-210.176-209.152-209.792 209.664c-3.323 3.17-7.834 5.12-12.8 5.12s-9.477-1.95-12.807-5.127l-4.729-4.729c-3.17-3.323-5.12-7.834-5.12-12.8s1.95-9.477 5.127-12.807l-0.007 0.007 206.592-207.616-206.592-207.616c-3.17-3.323-5.12-7.834-5.12-12.8s1.95-9.477 5.127-12.807l4.729-4.729c3.323-3.17 7.834-5.12 12.8-5.12s9.477 1.95 12.807 5.127l-0.007-0.007 209.792 209.536 209.664-209.664c3.323-3.17 7.834-5.12 12.8-5.12s9.477 1.95 12.807 5.127l4.729 4.729c3.17 3.323 5.12 7.834 5.12 12.8s-1.95 9.477-5.127 12.807l0.007-0.007z" />
<glyph unicode="&#xe910;" glyph-name="logo-brand" data-tags="Logo_Alinéa" horiz-adv-x="3948" d="M0-51.636h109.285v119.34c0 196.286 175.939 275.129 258.128 312.222l460.048 206.166v-119.888l-459.735-205.892c-62.918-28.113-148.921-81.875-148.921-233.36v-78.491h109.324v78.432c0 95.198 59.983 122.236 95.472 137.946l403.86 181.124v-397.58h109.382v792.89h-717.999v-308.133c-16.179-10.212-69.746-37.837-109.558-88.39v505.808h936.921v-902.155h109.402v1011.596h-1155.607v-1011.636zM328.128 631.872h334.036l-334.036-149.684v149.684zM2381.508 519.868h-111.984v111.984h111.984v-111.984zM2168.827-51.479h-111.984v683.332h111.984v-683.332zM2381.547-51.479h-111.984v483.642h111.984v-483.642zM2595.284-51.479h-112.865v483.603h112.65v-58.966c26.646 38.952 81.034 71.33 140.372 71.33 120.377 0 196.442-79.41 196.442-211.722v-284.363h-112.434v252.376c0 85.808-32.633 134.835-105.039 134.835-68.102 0-119.106-49.027-119.106-134.835v-252.376zM3415.192 373.373c-43.823 46.954-103.865 71.663-174.394 71.663-134.327 0-232.655-97.214-241.303-236.412-5.028-80.858 16.356-149.176 61.803-197.597 46.093-49.047 113.315-74.969 194.388-74.969 106.409 0 167.977 36.917 184.352 50.651v111.828c-65.344-51.238-139.883-74.343-212.113-60.081-65.148 12.795-106.193 48.401-115.858 119.164l365.045 0.333c4.617 81.621-14.106 164.181-61.94 215.361zM3117.819 248.437l1.741 5.458c17.412 54.662 66.811 89.994 125.816 89.994 65.774 0 110.556-44.117 118.264-90.21l0.743-5.224h-246.507zM3842.235-51.479h105.822v296.884c0 157.295-123.253 199.083-220.076 199.083-77.317 0-158.684-31.596-158.684-31.596v-105.646s70.646 41.3 147.963 41.3c52.001 0 90.914-10.525 110.674-44.606-40.38-15.514-113.295-43.999-178.659-71.956-90.894-38.874-122.705-101.068-122.705-157.529 0-84.301 60.648-138.435 160.542-138.435 64.561 0 116.347 28.153 155.143 61.783-0.039-2.406-0.039-49.34-0.039-49.34zM3695.622 33.879c-85.808-2.406-94.357 81.934-8.804 120.749 65.402 29.679 124.173 51.962 155.417 63.231 0-24.592 0-66.694 0-107.798-28.603-33.65-77.317-74.285-146.652-76.241zM1850.051-51.538h105.822v296.943c0 157.295-123.253 199.083-220.076 199.083-77.317 0-158.684-31.596-158.684-31.596v-105.646s70.646 41.3 147.963 41.3c52.001 0 90.914-10.525 110.674-44.606-40.38-15.514-113.295-43.999-178.659-71.956-90.836-38.874-122.725-101.068-122.725-157.529 0-84.301 60.648-138.435 160.542-138.435 64.561 0 116.347 28.153 155.143 61.783 0-2.406 0-49.34 0-49.34zM1703.439 33.82c-85.808-2.406-94.357 81.934-8.804 120.749 65.402 29.679 124.173 51.962 155.417 63.231 0-24.592 0-66.694 0-107.798-28.583-33.591-77.278-74.226-146.613-76.182z" />
<glyph unicode="&#xe915;" glyph-name="down" data-tags="down" d="M311.971 563.324l227.451-227.451c7.248-7.248 7.248-19 0-26.248l-4.616-4.616c-7.248-7.248-19-7.248-26.248 0l-227.451 227.451c-7.248 7.248-7.248 19 0 26.248l4.616 4.616c7.248 7.248 19 7.248 26.248 0zM762.189 532.654l-227.451-227.451c-7.248-7.248-19-7.248-26.248 0l-4.616 4.616c-7.248 7.248-7.248 19 0 26.248l227.451 227.451c7.248 7.248 19 7.248 26.248 0l4.616-4.616c7.248-7.248 7.248-19 0-26.248z" />
<glyph unicode="&#xe916;" glyph-name="left" data-tags="left" d="M641.154 651.313l-227.451-227.451c-7.248-7.248-19-7.248-26.248 0l-4.616 4.616c-7.248 7.248-7.248 19 0 26.248l227.451 227.451c7.248 7.248 19 7.248 26.248 0l4.616-4.616c7.248-7.248 7.248-19 0-26.248zM610.362 201.095l-227.451 227.451c-7.248 7.248-7.248 19 0 26.248l4.616 4.616c7.248 7.248 19 7.248 26.248 0l227.451-227.451c7.248-7.248 7.248-19 0-26.248l-4.616-4.616c-7.248-7.248-19-7.248-26.248 0z" />
<glyph unicode="&#xe917;" glyph-name="right" data-tags="right" d="M386.941 231.867l227.451 227.451c7.248 7.248 19 7.248 26.248 0l4.616-4.616c7.248-7.248 7.248-19 0-26.248l-227.451-227.451c-7.248-7.248-19-7.248-26.248 0l-4.616 4.616c-7.248 7.248-7.248 19 0 26.248zM417.733 682.252l227.451-227.451c7.248-7.248 7.248-19 0-26.248l-4.616-4.616c-7.248-7.248-19-7.248-26.248 0l-227.451 227.451c-7.248 7.248-7.248 19 0 26.248l4.616 4.616c7.248 7.248 19 7.248 26.248 0z" />
<glyph unicode="&#xe918;" glyph-name="up" data-tags="up" d="M724.826 312.452l-227.451 227.451c-7.248 7.248-7.248 19 0 26.248l4.616 4.616c7.248 7.248 19 7.248 26.248 0l227.451-227.451c7.248-7.248 7.248-19 0-26.248l-4.616-4.616c-7.248-7.248-19-7.248-26.248 0zM274.554 343.324l227.451 227.451c7.248 7.248 19 7.248 26.248 0l4.616-4.616c7.248-7.248 7.248-19 0-26.248l-227.451-227.451c-7.248-7.248-19-7.248-26.248 0l-4.616 4.616c-7.248 7.248-7.248 19 0 26.248z" />
<glyph unicode="&#xe91e;" glyph-name="checked-bis" data-tags="checked-bis" d="M245.76 275.968l243.2-282.112c123.904 252.416 275.456 484.864 519.168 705.024-182.784-102.912-383.488-298.496-555.52-540.16l-206.848 117.248z" />
<glyph unicode="&#xe921;" glyph-name="checked" data-tags="checked" d="M492.16 208.896c-0.003 0-0.007 0-0.010 0-8.119 0-15.356 3.78-20.046 9.676l-0.040 0.052-158.080 199.296c-3.602 4.377-5.786 10.038-5.786 16.21 0 14.138 11.462 25.6 25.6 25.6 8.213 0 15.523-3.868 20.207-9.881l0.043-0.057 133.76-168.192 198.784 379.008c4.283 8.499 12.94 14.227 22.935 14.227 14.138 0 25.6-11.462 25.6-25.6 0-4.566-1.195-8.852-3.29-12.563l0.066 0.128-217.6-414.208c-4-7.493-11.42-12.703-20.118-13.56l-0.106-0.008z" />
<glyph unicode="&#xe922;" glyph-name="euro" data-tags="euro" d="M765.824 153.6l-2.688 8.192c-2.287 10.282-11.33 17.854-22.141 17.854-2.756 0-5.397-0.492-7.84-1.393l0.157 0.051c-21.485-6.223-46.165-9.802-71.681-9.802-2.205 0-4.404 0.027-6.596 0.080l0.325-0.006c-1.512-0.033-3.293-0.052-5.078-0.052-108.049 0-199.813 69.728-232.747 166.641l-0.511 1.731h186.624c0.854-0.101 1.844-0.159 2.846-0.159 13.699 0 24.885 10.76 25.567 24.29l0.002 0.061c-0.056 2.778-0.615 5.409-1.589 7.829l0.053-0.149c-0.348 4.183-1.732 7.984-3.894 11.222l0.054-0.086c-4.021 5.019-10.15 8.206-17.023 8.206-0.27 0-0.54-0.005-0.808-0.015l0.039 0.001h-204.8c-2.692 14.060-4.232 30.231-4.232 46.762 0 0.705 0.003 1.41 0.008 2.114l-0.001-0.108c-0.004 0.584-0.007 1.275-0.007 1.967 0 13.705 0.933 27.191 2.738 40.4l-0.172-1.535h261.632c14.138 0 25.6 11.462 25.6 25.6s-11.462 25.6-25.6 25.6v0h-249.856c35.072 115.2 124.544 175.104 241.152 175.104 22.175-0.11 43.732-2.482 64.535-6.896l-2.071 0.368c2.174-0.8 4.684-1.262 7.303-1.262 10.148 0 18.673 6.946 21.080 16.343l0.033 0.151 2.816 6.912c1.040 2.621 1.643 5.657 1.643 8.834 0 4.063-0.986 7.895-2.731 11.271l0.064-0.137c-3.368 5.29-8.782 9.023-15.101 10.094l-0.131 0.018c-23.061 4.722-49.565 7.425-76.7 7.425-0.305 0-0.61 0-0.916-0.001h0.048c-150.144 0-262.656-86.784-301.952-227.584h-70.4c-14.138 0-25.6-11.462-25.6-25.6s11.462-25.6 25.6-25.6v0h60.16c-1.634-12.194-2.566-26.292-2.566-40.608 0-0.709 0.002-1.417 0.007-2.125l-0.001 0.109c-0.001-0.276-0.001-0.603-0.001-0.93 0-16.25 1.257-32.207 3.679-47.778l-0.222 1.732h-61.056c-14.138 0-25.6-11.462-25.6-25.6s11.462-25.6 25.6-25.6v0h71.424c40.064-140.8 152.32-224.896 301.056-224.896 1-0.011 2.181-0.017 3.364-0.017 32.274 0 63.454 4.682 92.898 13.404l-2.31-0.587c10.12 1.877 17.683 10.636 17.683 21.162 0 2.506-0.429 4.912-1.217 7.149l0.046-0.151z" />
<glyph unicode="&#xe923;" glyph-name="profile" data-tags="profile" d="M648.576 465.408c16.648 25.147 26.56 56.017 26.56 89.202 0 90.062-73.010 163.072-163.072 163.072s-163.072-73.010-163.072-163.072c0-33.185 9.912-64.055 26.938-89.81l-0.378 0.608c-89.6-55.168-143.744-187.264-143.744-287.36 0-10.604 8.596-19.2 19.2-19.2s19.2 8.596 19.2 19.2v0c0 91.648 51.2 212.864 130.048 257.536l1.024-0.896 4.48-3.84c2.688-2.304 5.376-4.608 8.192-6.784l5.376-3.712c2.688-1.92 5.504-3.712 8.32-5.504l5.888-3.328 8.576-4.48 6.144-2.816 8.96-3.584 6.272-2.176c3.2-1.024 6.4-1.792 9.6-2.688l6.144-1.536c3.584-0.768 7.168-1.28 10.88-1.792l5.376-0.768c4.954-0.567 10.695-0.89 16.512-0.89s11.558 0.323 17.207 0.953l-0.695-0.063 5.376 0.768c3.712 0 7.296 1.024 10.88 1.792l6.144 1.536c3.2 0.768 6.528 1.664 9.6 2.688l6.272 2.176 8.96 3.584 6.144 2.816 8.576 4.48 5.888 3.328c2.816 1.664 5.504 3.584 8.32 5.504l5.248 3.712c2.816 2.176 5.504 4.48 8.192 6.784l4.48 3.84 1.024 0.896c78.336-44.672 130.048-166.4 130.048-257.536 0-10.604 8.596-19.2 19.2-19.2s19.2 8.596 19.2 19.2v0c0.128 100.096-54.272 231.552-143.488 287.36zM418.176 471.808c-19.095 21.724-30.748 50.397-30.748 81.791 0 68.572 55.588 124.16 124.16 124.16s124.16-55.588 124.16-124.16c0-68.427-55.354-123.925-123.726-124.159h-0.022c-37.18 0.027-70.54 16.359-93.321 42.231l-0.119 0.137z" />
<glyph unicode="&#xe924;" glyph-name="place" data-tags="place" d="M615.68 569.216c0 57.261-46.419 103.68-103.68 103.68s-103.68-46.419-103.68-103.68c0-57.261 46.419-103.68 103.68-103.68v0c57.158 0.145 103.462 46.405 103.68 103.531v0.021zM449.28 569.216c0.001 34.356 27.852 62.206 62.208 62.206s62.208-27.851 62.208-62.208c0-34.177-27.56-61.916-61.668-62.206h-0.028c-34.327 0.073-62.135 27.881-62.208 62.201v0.007zM495.488 77.952c4.145-4.035 9.814-6.524 16.064-6.524s11.918 2.488 16.069 6.529l-0.005-0.005c11.264 11.648 275.712 290.176 274.816 472.448-0.768 146.816-130.944 266.496-290.432 266.496s-290.304-119.68-290.304-266.496c0-182.144 262.784-460.8 273.92-472.192zM512 780.8c136.704 0 248.32-103.168 248.96-230.4 0.64-132.992-161.664-332.8-232.832-413.568-4.164-4.408-10.050-7.152-16.576-7.152s-12.412 2.744-16.566 7.141l-0.010 0.011c-70.528 80.768-231.808 280.32-231.808 413.568 0 127.232 111.616 230.4 248.832 230.4zM512 780.8" />
<glyph unicode="&#xe92a;" glyph-name="switch-bg" data-tags="switch-bg" d="M726.272 669.824l-138.24 2.176h-155.264l-138.368-1.664c-119.986-2.976-216.116-100.95-216.116-221.376s96.13-218.4 215.841-221.371l0.275-0.005 138.112-3.584h155.52l138.112 2.56c122.404 0 221.632 99.228 221.632 221.632s-99.228 221.632-221.632 221.632v0z" />
<glyph unicode="&#xe92b;" glyph-name="switch-handle" data-tags="switch-handle" d="M528.768 448c0-122.227-99.085-221.312-221.312-221.312s-221.312 99.085-221.312 221.312c0 122.227 99.085 221.312 221.312 221.312s221.312-99.085 221.312-221.312z" />
<glyph unicode="&#xe92c;" glyph-name="tendre" data-tags="tendre" d="M508.672 186.88h-0.768c-4.477 0.551-8.434 2.446-11.537 5.263l0.017-0.015c-250.496 188.544-248.832 331.264-247.808 347.648 0 9.984 1.408 84.864 46.464 130.688 21.853 22.020 52.131 35.651 85.593 35.651 1.409 0 2.812-0.024 4.21-0.072l-0.203 0.006c1.511 0.058 3.285 0.091 5.067 0.091 52.551 0 98.378-28.789 122.569-71.457l0.364-0.699c22.016 30.464 62.080 60.032 128 60.032 1.51 0.065 3.28 0.102 5.060 0.102 34.319 0 65.409-13.824 88.006-36.208l-0.010 0.010c42.112-42.88 42.88-108.544 42.88-115.84 0-12.8-2.048-159.104-255.36-349.824-3.332-3.039-7.678-5.016-12.475-5.372l-0.069-0.004zM384 667.776c-0.998 0.043-2.168 0.068-3.345 0.068-22.677 0-43.211-9.171-58.098-24.006l0.002 0.002c-30.080-30.592-35.84-85.248-35.456-103.808 0.025-0.364 0.039-0.788 0.039-1.216s-0.014-0.852-0.042-1.273l0.003 0.057c0-1.024-7.936-128 221.312-305.024 230.4 177.408 228.992 307.2 228.864 308.352s0 57.344-32 89.6c-15.706 15.492-37.291 25.060-61.11 25.060-1.467 0-2.925-0.036-4.374-0.108l0.204 0.008c-92.288 0-109.952-70.784-110.592-73.728-1.833-8.549-9.326-14.864-18.293-14.864-0.274 0-0.547 0.006-0.818 0.018l0.039-0.001c-9.158 0.212-16.716 6.805-18.412 15.495l-0.020 0.121c-10.481 49.045-53.451 85.291-104.885 85.291-1.062 0-2.119-0.015-3.173-0.046l0.155 0.004z" />
<glyph unicode="&#xe930;" glyph-name="carte-rose-avantage-1" data-tags="carte-rose-avantage-1" horiz-adv-x="3261" d="M155.785 747.854h-108.289v193.781h-15.832v-208.346h124.121zM354.632 941.635h-17.098l-15.199-72.826h12.665zM585.143 784.584h121.588l21.531-51.295h17.098l-90.558 208.346h-17.732l-90.558-208.346h17.098l21.531 51.295zM645.304 925.803l53.828-126.654h-107.656l53.828 126.654zM1000.569 733.289l85.492 208.346h-17.098l-77.259-189.348-77.259 189.348h-17.098l85.492-208.346zM1329.87 941.635l-90.558-208.346h17.098l21.531 51.295h121.588l21.531-51.295h17.098l-90.558 208.346h-17.732zM1284.275 799.149l53.828 126.654 53.828-126.654h-107.656zM1783.926 761.786l-132.354 179.849h-13.932v-208.346h15.832v179.849l132.354-179.849h13.932v208.346h-15.832zM2077.764 733.289h15.832v193.781h75.359v14.565h-166.55v-14.565h75.359zM2353.237 784.584h121.588l21.531-51.295h17.098l-90.558 208.346h-17.732l-90.558-208.346h17.098l21.531 51.295zM2413.398 925.803l53.828-126.654h-107.656l53.828 126.654zM2795.894 729.489c33.563 0 63.327 15.832 78.526 29.13v83.592h-87.391v-14.565h72.826v-60.794c-15.199-12.665-34.197-22.165-63.327-22.165-60.794 0-91.824 43.696-91.824 92.458 0 48.129 31.030 93.091 91.824 93.091 25.964 0 48.762-12.032 62.694-27.231l10.132 10.766c-14.565 17.098-43.062 31.664-73.459 31.030-63.327 0-107.023-43.062-107.023-108.289 0-56.994 36.096-107.023 107.023-107.023zM3230.951 748.487h-121.588v82.325h113.356v14.565h-113.356v81.059h119.055v15.199h-134.887v-208.346h137.42zM1914.38 469.848h1323.537v-9.499h-1323.537v9.499zM14.565 469.848h1355.201v-9.499h-1355.201v9.499zM111.456-24.737c-49.395 0-71.56 33.563-71.56 69.66 0 37.363 21.531 74.093 71.56 74.093 17.732 0 36.73-7.599 50.662-20.265l20.898 20.265c-20.265 20.265-44.962 29.13-71.56 27.864-69.66 0-102.59-50.028-102.59-101.957 0-51.295 31.664-100.057 102.59-100.057 28.497 0 56.361 11.399 74.093 29.13l-22.165 22.165c-13.932-13.932-34.197-20.898-51.928-20.898zM444.557 144.98l-85.492-195.681h32.93l17.098 39.896h97.524l17.098-39.896h34.83l-82.959 195.681h-31.030zM419.859 18.325l37.996 88.658 36.73-88.658h-74.726zM908.111 81.019c0 32.93-24.064 63.96-69.027 63.96v0h-89.925v-195.681h31.030v67.76h38.63l56.994-67.76h41.796l-62.061 70.926c38.63 5.699 52.562 32.93 52.562 60.794zM779.557 45.556v69.66h60.161c25.964 0 36.73-17.732 36.73-34.83 0-17.732-12.032-34.83-37.996-34.83h-58.894zM1087.96 115.849h63.96v-166.55h31.664v166.55h63.96v29.13h-159.584zM1470.456 32.257h96.891v29.13h-96.891v54.461h101.957v29.13h-133.62v-196.314h135.52v29.764h-103.857z" />
<glyph unicode="&#xe931;" glyph-name="carte-rose-avantage-2" data-tags="carte-rose-avantage-2" horiz-adv-x="3261" d="M1756.062 421.719c-3.166 0-8.866-1.267-15.199-7.599-10.766-13.932-19.631-22.798-31.664-33.563 36.73 39.263 80.425 132.354 27.231 224.811 0 0-21.531-15.199-37.996-44.329-16.465 25.964-41.163 48.762-72.826 68.393 0 0-77.259-86.758-44.329-212.779-103.223-13.932-59.528-98.79-45.596-103.223 0 0-29.13 36.73 8.866 69.66 16.465 15.199 53.195 19.631 53.195 19.631-7.599 60.794-7.599 115.255 33.563 176.049 4.433-3.166 65.227-30.397 68.393-120.322 4.433-56.361-24.064-101.957-51.928-118.422-48.762-25.964-101.957-39.263-160.851-53.195 110.823 0 220.378 54.461 264.707 107.656 14.565 15.199 6.966 27.231 4.433 27.231zM1722.498 485.68c-1.267 18.365-6.333 34.83-12.032 50.028 10.766 22.798 22.798 31.664 22.798 31.664s22.798-60.794 3.166-122.855c-15.199-46.862-31.664-67.127-39.263-74.726 26.597 41.163 28.497 86.758 25.331 115.889zM2104.361 144.98c48.129-1.267 74.093-31.030 74.093-67.127 0-24.064-8.233-50.662-41.796-62.061l53.828-67.127h-63.96l-44.962 60.794h-25.964v-60.794h-48.129v195.681h96.891v0.633zM2054.966 53.155h48.762c17.732 0 24.698 13.932 24.698 24.064 0 12.032-8.233 22.798-25.964 22.798h-48.129v-46.862h0.633zM2559.050 46.189c0-50.662-31.030-100.69-101.957-100.69s-101.957 50.028-101.957 100.69 31.030 101.957 101.957 101.957 101.957-51.295 101.957-101.957zM2403.265 45.556c0-29.764 12.665-55.728 53.828-55.728s53.828 25.964 53.828 55.728-12.665 58.894-53.828 58.894-53.828-29.13-53.828-58.894zM2904.183 115.849l-29.13-31.030c-13.932 10.766-24.698 20.265-48.129 20.265-24.064 0-31.030-10.132-31.030-17.098 0-24.698 114.622-12.032 114.622-81.059 0-41.796-39.896-60.794-84.858-60.794s-76.626 22.165-88.025 50.662l39.896 20.898c6.966-20.265 24.698-27.864 48.762-27.864 22.798 0 36.096 3.8 36.096 15.199 0 25.964-114.622 8.866-114.622 81.692 0 39.896 37.996 60.794 76.626 60.794 43.696 0.633 69.66-17.732 79.792-31.664zM3150.526 100.017v-31.030h86.758v-44.962h-86.758v-31.030h93.724v-44.962h-142.486v196.314h140.586v-44.962h-91.824v0.633z" />
<glyph unicode="&#xe932;" glyph-name="star" data-tags="star" d="M511.050 935.302l159.584-321.069 353.365-51.295-256.475-248.876 60.794-351.466-317.269 165.284-315.369-165.284 60.794 351.466-256.475 248.876 353.365 51.295z" />
<glyph unicode="&#xe933;" glyph-name="share" data-tags="share" d="M768 331.84c-38.032 0-72.24-16-96.528-41.536l-283.792 138.944c0.976 6.528 1.648 13.136 1.648 19.936 0 6.624-0.64 13.088-1.568 19.44l283.376 137.424c24.304-25.744 58.672-41.904 96.864-41.904 73.632 0 133.328 59.696 133.328 133.328 0 73.648-59.696 133.328-133.328 133.328s-133.328-59.68-133.328-133.328c0-6.624 0.64-13.072 1.568-19.44l-283.376-137.424c-24.304 25.744-58.656 41.904-96.864 41.904-73.648 0-133.328-59.696-133.328-133.328 0-73.648 59.68-133.328 133.328-133.328 38.032 0 72.24 16 96.528 41.536l283.792-138.944c-0.976-6.512-1.648-13.136-1.648-19.936 0-73.648 59.696-133.328 133.328-133.328s133.328 59.68 133.328 133.328c0 73.648-59.696 133.328-133.328 133.328z" />
</font>
</defs>
</svg>
